<?xml version="1.0" encoding="UTF-8" standalone="no"?>
<!-- Created with Inkscape (http://www.inkscape.org/) -->

<svg
   xmlns:dc="http://purl.org/dc/elements/1.1/"
   xmlns:cc="http://creativecommons.org/ns#"
   xmlns:rdf="http://www.w3.org/1999/02/22-rdf-syntax-ns#"
   xmlns:svg="http://www.w3.org/2000/svg"
   xmlns="http://www.w3.org/2000/svg"
   xmlns:sodipodi="http://sodipodi.sourceforge.net/DTD/sodipodi-0.dtd"
   xmlns:inkscape="http://www.inkscape.org/namespaces/inkscape"
   width="1600"
   height="1600"
   viewBox="0 0 423.33332 423.33335"
   version="1.1"
   id="svg8"
   inkscape:version="0.92.5 (2060ec1f9f, 2020-04-08)"
   sodipodi:docname="blackandwhitesolid.svg">
  <defs
     id="defs2" />
  <sodipodi:namedview
     id="base"
     pagecolor="#ffffff"
     bordercolor="#666666"
     borderopacity="1.0"
     inkscape:pageopacity="0.0"
     inkscape:pageshadow="2"
     inkscape:zoom="0.35"
     inkscape:cx="362.85714"
     inkscape:cy="560"
     inkscape:document-units="mm"
     inkscape:current-layer="layer1"
     showgrid="false"
     units="px"
     inkscape:window-width="1920"
     inkscape:window-height="1001"
     inkscape:window-x="-9"
     inkscape:window-y="-9"
     inkscape:window-maximized="1" />
  <metadata
     id="metadata5">
    <rdf:RDF>
      <cc:Work
         rdf:about="">
        <dc:format>image/svg+xml</dc:format>
        <dc:type
           rdf:resource="http://purl.org/dc/dcmitype/StillImage" />
        <dc:title></dc:title>
      </cc:Work>
    </rdf:RDF>
  </metadata>
  <g
     inkscape:label="Layer 1"
     inkscape:groupmode="layer"
     id="layer1"
     transform="translate(0,126.33335)">
    <path
       style="fill:#ffffff;stroke-width:0.78140372"
       d="M 0 0 L 0 200 L 200 200 L 200 0 L 0 0 z M 200 200 L 200 400 L 400 400 L 400 200 L 200 200 z M 400 200 L 600 200 L 600 0 L 400 0 L 400 200 z M 600 200 L 600 400 L 800 400 L 800 200 L 600 200 z M 800 200 L 1000 200 L 1000 0 L 800 0 L 800 200 z M 1000 200 L 1000 400 L 1200 400 L 1200 200 L 1000 200 z M 1200 200 L 1400 200 L 1400 0 L 1200 0 L 1200 200 z M 1400 200 L 1400 400 L 1600 400 L 1600 200 L 1400 200 z M 1400 400 L 1200 400 L 1200 600 L 1400 600 L 1400 400 z M 1400 600 L 1400 800 L 1600 800 L 1600 600 L 1400 600 z M 1400 800 L 1200 800 L 1200 1000 L 1400 1000 L 1400 800 z M 1400 1000 L 1400 1200 L 1600 1200 L 1600 1000 L 1400 1000 z M 1400 1200 L 1200 1200 L 1200 1400 L 1400 1400 L 1400 1200 z M 1400 1400 L 1400 1600 L 1600 1600 L 1600 1400 L 1400 1400 z M 1200 1400 L 1000 1400 L 1000 1600 L 1200 1600 L 1200 1400 z M 1000 1400 L 1000 1200 L 800 1200 L 800 1400 L 1000 1400 z M 800 1400 L 600 1400 L 600 1600 L 800 1600 L 800 1400 z M 600 1400 L 600 1200 L 400 1200 L 400 1400 L 600 1400 z M 400 1400 L 200 1400 L 200 1600 L 400 1600 L 400 1400 z M 200 1400 L 200 1200 L 0 1200 L 0 1400 L 200 1400 z M 200 1200 L 400 1200 L 400 1000 L 200 1000 L 200 1200 z M 200 1000 L 200 800 L 0 800 L 0 1000 L 200 1000 z M 200 800 L 400 800 L 400 600 L 200 600 L 200 800 z M 200 600 L 200 400 L 0 400 L 0 600 L 200 600 z M 400 600 L 600 600 L 600 400 L 400 400 L 400 600 z M 600 600 L 600 800 L 800 800 L 800 600 L 600 600 z M 800 600 L 1000 600 L 1000 400 L 800 400 L 800 600 z M 1000 600 L 1000 800 L 1200 800 L 1200 600 L 1000 600 z M 1000 800 L 800 800 L 800 1000 L 1000 1000 L 1000 800 z M 1000 1000 L 1000 1200 L 1200 1200 L 1200 1000 L 1000 1000 z M 800 1000 L 600 1000 L 600 1200 L 800 1200 L 800 1000 z M 600 1000 L 600 800 L 400 800 L 400 1000 L 600 1000 z "
       transform="matrix(0.26458333,0,0,0.26458333,0,-126.33335)"
       id="rect10-1" />
    <g
       transform="translate(3.8146973e-6,2.4068196e-6)"
       id="g104">
      <rect
         y="244.08331"
         x="0"
         height="52.916668"
         width="52.916668"
         id="rect10"
         style="fill:#000000;stroke-width:0.2067464" />
      <rect
         y="244.08331"
         x="105.83334"
         height="52.916668"
         width="52.916668"
         id="rect10-14"
         style="fill:#000000;stroke-width:0.2067464" />
      <rect
         y="244.08331"
         x="211.66667"
         height="52.916668"
         width="52.916668"
         id="rect10-6"
         style="fill:#000000;stroke-width:0.2067464" />
      <rect
         y="244.08331"
         x="317.5"
         height="52.916668"
         width="52.916668"
         id="rect10-14-5"
         style="fill:#000000;stroke-width:0.2067464" />
      <rect
         transform="scale(-1,1)"
         y="191.16666"
         x="-423.33337"
         height="52.916668"
         width="52.916668"
         id="rect10-4"
         style="fill:#000000;stroke-width:0.2067464" />
      <rect
         transform="scale(-1,1)"
         y="191.16666"
         x="-317.50003"
         height="52.916668"
         width="52.916668"
         id="rect10-14-1"
         style="fill:#000000;stroke-width:0.2067464" />
      <rect
         transform="scale(-1,1)"
         y="191.16666"
         x="-211.66672"
         height="52.916668"
         width="52.916668"
         id="rect10-6-2"
         style="fill:#000000;stroke-width:0.2067464" />
      <rect
         transform="scale(-1,1)"
         y="191.16666"
         x="-105.83338"
         height="52.916668"
         width="52.916668"
         id="rect10-14-5-0"
         style="fill:#000000;stroke-width:0.2067464" />
      <rect
         y="138.24998"
         x="-3.8146973e-06"
         height="52.916668"
         width="52.916668"
         id="rect10-9"
         style="fill:#000000;stroke-width:0.2067464" />
      <rect
         y="138.24998"
         x="105.83334"
         height="52.916668"
         width="52.916668"
         id="rect10-14-0"
         style="fill:#000000;stroke-width:0.2067464" />
      <rect
         y="138.24998"
         x="211.66667"
         height="52.916668"
         width="52.916668"
         id="rect10-6-9"
         style="fill:#000000;stroke-width:0.2067464" />
      <rect
         y="138.24998"
         x="317.5"
         height="52.916668"
         width="52.916668"
         id="rect10-14-5-2"
         style="fill:#000000;stroke-width:0.2067464" />
      <rect
         transform="scale(-1,1)"
         y="85.333328"
         x="-423.33337"
         height="52.916668"
         width="52.916668"
         id="rect10-4-1"
         style="fill:#000000;stroke-width:0.2067464" />
      <rect
         transform="scale(-1,1)"
         y="85.333328"
         x="-317.50003"
         height="52.916668"
         width="52.916668"
         id="rect10-14-1-3"
         style="fill:#000000;stroke-width:0.2067464" />
      <rect
         transform="scale(-1,1)"
         y="85.333328"
         x="-211.66672"
         height="52.916668"
         width="52.916668"
         id="rect10-6-2-6"
         style="fill:#000000;stroke-width:0.2067464" />
      <rect
         transform="scale(-1,1)"
         y="85.333328"
         x="-105.83339"
         height="52.916668"
         width="52.916668"
         id="rect10-14-5-0-2"
         style="fill:#000000;stroke-width:0.2067464" />
      <rect
         y="32.416656"
         x="-1.4210855e-14"
         height="52.916668"
         width="52.916668"
         id="rect10-97"
         style="fill:#000000;stroke-width:0.2067464" />
      <rect
         y="32.416656"
         x="105.83335"
         height="52.916668"
         width="52.916668"
         id="rect10-14-7"
         style="fill:#000000;stroke-width:0.2067464" />
      <rect
         y="32.416656"
         x="211.66669"
         height="52.916668"
         width="52.916668"
         id="rect10-6-6"
         style="fill:#000000;stroke-width:0.2067464" />
      <rect
         y="32.416656"
         x="317.5"
         height="52.916668"
         width="52.916668"
         id="rect10-14-5-8"
         style="fill:#000000;stroke-width:0.2067464" />
      <rect
         transform="scale(-1,1)"
         y="-20.5"
         x="-423.3334"
         height="52.916668"
         width="52.916668"
         id="rect10-4-8"
         style="fill:#000000;stroke-width:0.2067464" />
      <rect
         transform="scale(-1,1)"
         y="-20.5"
         x="-317.50003"
         height="52.916668"
         width="52.916668"
         id="rect10-14-1-5"
         style="fill:#000000;stroke-width:0.2067464" />
      <rect
         transform="scale(-1,1)"
         y="-20.5"
         x="-211.66673"
         height="52.916668"
         width="52.916668"
         id="rect10-6-2-0"
         style="fill:#000000;stroke-width:0.2067464" />
      <rect
         transform="scale(-1,1)"
         y="-20.5"
         x="-105.83339"
         height="52.916668"
         width="52.916668"
         id="rect10-14-5-0-9"
         style="fill:#000000;stroke-width:0.2067464" />
      <rect
         y="-73.416679"
         x="-1.4210855e-14"
         height="52.916668"
         width="52.916668"
         id="rect10-9-0"
         style="fill:#000000;stroke-width:0.2067464" />
      <rect
         y="-73.416679"
         x="105.83335"
         height="52.916668"
         width="52.916668"
         id="rect10-14-0-4"
         style="fill:#000000;stroke-width:0.2067464" />
      <rect
         y="-73.416679"
         x="211.66669"
         height="52.916668"
         width="52.916668"
         id="rect10-6-9-1"
         style="fill:#000000;stroke-width:0.2067464" />
      <rect
         y="-73.416679"
         x="317.5"
         height="52.916668"
         width="52.916668"
         id="rect10-14-5-2-4"
         style="fill:#000000;stroke-width:0.2067464" />
      <rect
         transform="scale(-1,1)"
         y="-126.33333"
         x="-423.3334"
         height="52.916668"
         width="52.916668"
         id="rect10-4-1-7"
         style="fill:#000000;stroke-width:0.2067464" />
      <rect
         transform="scale(-1,1)"
         y="-126.33333"
         x="-317.50003"
         height="52.916668"
         width="52.916668"
         id="rect10-14-1-3-8"
         style="fill:#000000;stroke-width:0.2067464" />
      <rect
         transform="scale(-1,1)"
         y="-126.33333"
         x="-211.66673"
         height="52.916668"
         width="52.916668"
         id="rect10-6-2-6-0"
         style="fill:#000000;stroke-width:0.2067464" />
      <rect
         transform="scale(-1,1)"
         y="-126.33333"
         x="-105.8334"
         height="52.916668"
         width="52.916668"
         id="rect10-14-5-0-2-2"
         style="fill:#000000;stroke-width:0.2067464" />
    </g>
  </g>
</svg>
