<?xml version="1.0" encoding="UTF-8" standalone="no"?>
<!-- Created with Inkscape (http://www.inkscape.org/) -->

<svg
   xmlns:dc="http://purl.org/dc/elements/1.1/"
   xmlns:cc="http://creativecommons.org/ns#"
   xmlns:rdf="http://www.w3.org/1999/02/22-rdf-syntax-ns#"
   xmlns:svg="http://www.w3.org/2000/svg"
   xmlns="http://www.w3.org/2000/svg"
   xmlns:sodipodi="http://sodipodi.sourceforge.net/DTD/sodipodi-0.dtd"
   xmlns:inkscape="http://www.inkscape.org/namespaces/inkscape"
   width="200"
   height="200"
   viewBox="0 0 52.916666 52.916666"
   version="1.1"
   id="svg6352"
   inkscape:version="0.92.5 (2060ec1f9f, 2020-04-08)"
   sodipodi:docname="bishop.svg">
  <defs
     id="defs6346" />
  <sodipodi:namedview
     id="base"
     pagecolor="#ffffff"
     bordercolor="#666666"
     borderopacity="1.0"
     inkscape:pageopacity="0.0"
     inkscape:pageshadow="2"
     inkscape:zoom="1.8803892"
     inkscape:cx="49.540641"
     inkscape:cy="102.85714"
     inkscape:document-units="mm"
     inkscape:current-layer="layer1"
     showgrid="false"
     units="px"
     inkscape:window-width="1920"
     inkscape:window-height="1001"
     inkscape:window-x="-9"
     inkscape:window-y="-9"
     inkscape:window-maximized="1" />
  <metadata
     id="metadata6349">
    <rdf:RDF>
      <cc:Work
         rdf:about="">
        <dc:format>image/svg+xml</dc:format>
        <dc:type
           rdf:resource="http://purl.org/dc/dcmitype/StillImage" />
        <dc:title></dc:title>
      </cc:Work>
    </rdf:RDF>
  </metadata>
  <g
     inkscape:label="Layer 1"
     inkscape:groupmode="layer"
     id="layer1"
     transform="translate(0,-244.08334)">
    <path
       style="fill:#000000;stroke-width:0.62607527"
       d="m 26.179169,250.74863 c -2.922506,0 -5.291666,2.36916 -5.291666,5.29167 1.95e-4,1.18992 0.401441,2.34505 1.138948,3.27887 -3.946632,4.82008 -8.450912,9.05138 -9.318811,15.89412 -1.143478,9.01551 7.258745,9.44056 -1.856215,10.11824 l -5.29e-4,-5.3e-4 v 5.29167 h 15.213541 v -17.31471 c -0.414166,-0.0818 -0.808844,-0.24211 -1.16272,-0.47232 -1.529101,-0.99929 -1.958524,-3.04899 -0.959114,-4.57801 0.486996,-0.74161 1.251535,-1.25645 2.121834,-1.42886 -2.41e-4,-6.78785 5.55e-4,-4.87487 5.29e-4,-5.3e-4 0.570805,-0.11455 1.161736,-0.0764 1.713075,0.11059 l 3.81372,-5.83634 c -0.461958,-0.54236 -0.92274,-1.08838 -1.376662,-1.64124 0.810414,-0.95568 1.255395,-2.16794 1.255739,-3.42098 0,-2.92251 -2.369161,-5.29167 -5.291667,-5.29167 z m 6.549988,11.69748 -3.547071,5.42757 c 0.989852,1.11458 1.111748,2.7536 0.297657,4.00234 -0.739339,1.12951 -2.090947,1.69629 -3.414779,1.43196 v 17.3147 h 15.21406 v -5.29166 l -5.29e-4,5.3e-4 c -9.115216,-0.6777 -0.712692,-1.10275 -1.856205,-10.11826 -0.677455,-5.34107 -3.577784,-9.08752 -6.693133,-12.76718 z"
       id="rect857-2-8-2"
       inkscape:connector-curvature="0"
       sodipodi:nodetypes="sccscccccccccccccsccccccccsc" />
  </g>
</svg>
