<?xml version="1.0" encoding="UTF-8" standalone="no"?>
<!-- Created with Inkscape (http://www.inkscape.org/) -->

<svg
   xmlns:dc="http://purl.org/dc/elements/1.1/"
   xmlns:cc="http://creativecommons.org/ns#"
   xmlns:rdf="http://www.w3.org/1999/02/22-rdf-syntax-ns#"
   xmlns:svg="http://www.w3.org/2000/svg"
   xmlns="http://www.w3.org/2000/svg"
   xmlns:sodipodi="http://sodipodi.sourceforge.net/DTD/sodipodi-0.dtd"
   xmlns:inkscape="http://www.inkscape.org/namespaces/inkscape"
   width="200"
   height="200"
   viewBox="0 0 52.916666 52.916666"
   version="1.1"
   id="svg6352"
   inkscape:version="0.92.5 (2060ec1f9f, 2020-04-08)"
   sodipodi:docname="queen.svg">
  <defs
     id="defs6346" />
  <sodipodi:namedview
     id="base"
     pagecolor="#ffffff"
     bordercolor="#666666"
     borderopacity="1.0"
     inkscape:pageopacity="0.0"
     inkscape:pageshadow="2"
     inkscape:zoom="1.8803892"
     inkscape:cx="49.540641"
     inkscape:cy="102.85714"
     inkscape:document-units="mm"
     inkscape:current-layer="layer1"
     showgrid="false"
     units="px"
     inkscape:window-width="1920"
     inkscape:window-height="1001"
     inkscape:window-x="-9"
     inkscape:window-y="-9"
     inkscape:window-maximized="1" />
  <metadata
     id="metadata6349">
    <rdf:RDF>
      <cc:Work
         rdf:about="">
        <dc:format>image/svg+xml</dc:format>
        <dc:type
           rdf:resource="http://purl.org/dc/dcmitype/StillImage" />
        <dc:title></dc:title>
      </cc:Work>
    </rdf:RDF>
  </metadata>
  <g
     inkscape:label="Layer 1"
     inkscape:groupmode="layer"
     id="layer1"
     transform="translate(0,-244.08334)">
    <path
       style="fill:#000000;stroke-width:0.2498398"
       d="m 26.148267,253.05075 a 3.1509065,3.3821693 0 0 0 -3.15071,3.3817 3.1509065,3.3821693 0 0 0 1.79007,3.04633 l -1.5043,10.53372 -4.10724,-8.07444 a 3.1509065,3.3821693 0 0 0 1.15393,-2.61276 3.1509065,3.3821693 0 0 0 -3.15071,-3.38222 3.1509065,3.3821693 0 0 0 -3.15123,3.38222 3.1509065,3.3821693 0 0 0 2.9931,3.37344 l 1.16892,8.91263 -5.19865,-5.81101 a 3.1509065,3.3821693 0 0 0 0.45631,-1.74408 3.1509065,3.3821693 0 0 0 -3.15123,-3.38223 3.1509065,3.3821693 0 0 0 -3.1507097,3.38223 3.1509065,3.3821693 0 0 0 3.1507097,3.38222 3.1509065,3.3821693 0 0 0 0.12299,-0.005 c 2.28321,4.9786 8.18623,13.65068 3.72638,15.63781 h 24.36492 c -4.45984,-1.98713 1.44318,-10.65921 3.72639,-15.63781 a 3.1509065,3.3821693 0 0 0 0.12248,0.005 3.1509065,3.3821693 0 0 0 3.15071,-3.38222 3.1509065,3.3821693 0 0 0 -3.15071,-3.38223 3.1509065,3.3821693 0 0 0 -3.15072,3.38223 3.1509065,3.3821693 0 0 0 0.45579,1.74408 l -5.19813,5.81101 1.1684,-8.91263 a 3.1509065,3.3821693 0 0 0 2.9931,-3.37344 3.1509065,3.3821693 0 0 0 -3.15071,-3.38222 3.1509065,3.3821693 0 0 0 -3.15123,3.38222 3.1509065,3.3821693 0 0 0 1.15393,2.61276 l -4.10724,8.07444 -1.5043,-10.53372 a 3.1509065,3.3821693 0 0 0 1.79059,-3.04633 3.1509065,3.3821693 0 0 0 -3.15123,-3.3817 3.1509065,3.3821693 0 0 0 -0.17983,0.007 3.1509065,3.3821693 0 0 0 -0.17984,-0.007 z m -14.84715,30.02142 v 5.29167 h 30.42708 v -5.29167 z"
       id="path5338"
       inkscape:connector-curvature="0" />
  </g>
</svg>
